# xmcd CD database file
#
# Track frame offsets:
#	150
#	19406
#	37427
#	55910
#	77178
#	97640
#	99758
#	117559
#	141412
#	161485
#	176250
#	196057
#
# Disc length: 2795 seconds
#
# Revision: 1
# Processed by: cddbd v1.5.2PL0 Copyright (c) Steve Scherf et al.
# Submitted via: CDex 1.70beta3
#
DISCID=9a0ae90c
DTITLE=ベッキー♪♯ - 心の星
DYEAR=2010
DGENRE=Japanese Pop
TTITLE0=テクノキャット
TTITLE1=好きだから
TTITLE2=君へ
TTITLE3=心こめて
TTITLE4=そらいろ
TTITLE5=～The STAR Bridge～
TTITLE6=WBC
TTITLE7=手紙
TTITLE8=幸の素
TTITLE9=ハピハピ
TTITLE10=闇を突きぬけてゆく
TTITLE11=時の中に
EXTD=YEAR: 2010
EXTT0=
EXTT1=
EXTT2=
EXTT3=
EXTT4=
EXTT5=
EXTT6=
EXTT7=
EXTT8=
EXTT9=
EXTT10=
EXTT11=
PLAYORDER=
